<!-- icon666.com - MILLIONS vector ICONS FREE --><svg enable-background="new 0 0 55.686 57.693" viewBox="0 0 55.686 57.693" xmlns="http://www.w3.org/2000/svg"><path d="m29.829 57.693h-24.07c-1.02 0-1.847-.826-1.847-1.846v-18.092c0-1.02.827-1.846 1.847-1.846s1.846.826 1.846 1.846v16.247h22.225c1.02 0 1.846.826 1.846 1.846s-.827 1.845-1.847 1.845z" fill="#000000" style="fill: rgb(0, 0, 0);"></path><path d="m49.991 57.693h-15.52c-1.02 0-1.847-.826-1.847-1.846v-10.07c0-2.888-2.015-4.984-4.791-4.984s-4.792 2.097-4.792 4.984v10.07c0 1.02-.826 1.846-1.846 1.846s-1.847-.826-1.847-1.846v-10.07c0-4.946 3.647-8.676 8.484-8.676 4.836 0 8.483 3.729 8.483 8.676v8.225h11.828v-16.247c0-1.02.827-1.846 1.847-1.846s1.846.826 1.846 1.846v18.093c.001 1.019-.825 1.845-1.845 1.845z" fill="#000000" style="fill: rgb(0, 0, 0);"></path><path d="m50.484 34.932h-45.301c-1.556 0-2.942-.659-3.903-1.856-1.163-1.448-1.558-3.509-1.083-5.653l2.993-12.662c.197-.833.94-1.421 1.797-1.421h5.068c1.02 0 1.846.826 1.846 1.846s-.826 1.846-1.846 1.846h-3.608l-2.652 11.213c-.222 1.005-.088 1.956.363 2.519.257.32.592.477 1.024.477h45.302c.434 0 .771-.158 1.033-.482.458-.567.599-1.524.376-2.56l-2.673-11.168h-3.61c-1.02 0-1.847-.826-1.847-1.846s.827-1.846 1.847-1.846h5.067c.854 0 1.597.585 1.795 1.416l3.021 12.624c.472 2.188.066 4.25-1.103 5.697-.965 1.197-2.353 1.856-3.906 1.856z" fill="#000000" style="fill: rgb(0, 0, 0);"></path><path d="m33.059 28.906c-.908 0-3.355-.271-5.224-2.926-1.869 2.655-4.315 2.926-5.225 2.926-2.715 0-5.232-1.925-5.986-4.577-.555-1.949-.128-3.938 1.151-5.723-1.075-.312-2.007-.799-2.762-1.451-1.328-1.147-2.06-2.744-2.06-4.496 0-3.033 2.41-6.307 6.305-6.307.744 0 1.507.124 2.275.367-.058-1.822.468-3.146 1.063-4.051 1.1-1.67 2.995-2.668 5.066-2.668 2.113 0 4.063 1.026 5.218 2.745.512.763 1.135 2.087 1.129 4.007.805-.266 1.606-.399 2.401-.399 2.279 0 4.315 1.169 5.445 3.128 1.116 1.934 1.145 4.287.074 6.142-.535.926-1.693 2.311-4.034 2.989 1.277 1.782 1.703 3.771 1.149 5.718-.753 2.651-3.271 4.576-5.985 4.576zm-5.224-9.518c.863 0 1.611.598 1.801 1.44.618 2.746 1.897 4.386 3.423 4.386 1.081 0 2.128-.814 2.435-1.894.433-1.522-.644-3.215-2.953-4.643-.729-.451-1.052-1.345-.779-2.157s1.069-1.338 1.922-1.251c.391.036.763.054 1.114.054h.002c1.96 0 3.356-.55 3.934-1.548.413-.716.385-1.654-.074-2.449-.276-.479-.936-1.281-2.248-1.281-1.147 0-2.487.621-3.875 1.796-.649.549-1.59.585-2.278.084-.688-.5-.945-1.405-.623-2.192.853-2.082.916-3.833.18-4.93-.467-.695-1.271-1.11-2.151-1.11-.838 0-1.56.366-1.98 1.006-.708 1.076-.588 2.853.339 5.003.339.787.092 1.704-.597 2.214s-1.638.479-2.292-.074c-1.388-1.175-2.727-1.796-3.873-1.796-1.636 0-2.612 1.329-2.612 2.614 0 .469.136 1.145.781 1.702.896.775 2.469 1.101 4.558.908.85-.087 1.648.438 1.921 1.251s-.05 1.706-.779 2.157c-2.309 1.428-3.385 3.12-2.952 4.642.308 1.08 1.354 1.895 2.436 1.895 1.525 0 2.806-1.64 3.423-4.386.186-.844.934-1.441 1.797-1.441z" fill="#000000" style="fill: rgb(0, 0, 0);"></path><path d="m27.833 17.711c-.66 0-1.301-.271-1.771-.73-.46-.47-.729-1.109-.729-1.77s.27-1.3.729-1.771c.93-.92 2.6-.93 3.54 0 .46.471.73 1.11.73 1.771s-.271 1.3-.73 1.77c-.469.459-1.11.73-1.769.73z" fill="#000000" style="fill: rgb(0, 0, 0);"></path></svg>